<svg width="319" height="308" viewBox="0 0 319 308" fill="none" xmlns="http://www.w3.org/2000/svg">
<path d="M219.772 181.227C223.256 176.424 225.785 170.811 227.024 164.612C231.62 141.599 216.689 119.216 193.677 114.62C170.664 110.025 148.282 124.955 143.686 147.968C142.448 154.168 142.627 160.321 143.999 166.093L219.772 181.227Z" fill="#D1DEF0"/>
<path d="M224.797 140.472C221.004 140.754 215.631 140.43 208.39 138.465C194.181 134.611 178.576 122.885 165.28 118.837C155.473 124.099 147.793 133.16 144.532 144.487C149.303 141.894 156.032 139.409 164.742 138.927C184.152 137.852 203.646 147.404 214.672 148.898C219.366 149.535 223.671 148.986 227.069 148.147C226.553 145.507 225.789 142.939 224.797 140.472Z" fill="#BFCBDC"/>
<path d="M215.721 166.397C208.955 164.731 187.382 147.626 166.892 148.507C155.439 148.999 147.639 151.173 142.987 152.995C142.633 157.477 142.999 161.887 143.999 166.093L219.771 181.227C223.16 176.556 225.645 171.12 226.918 165.123C223.341 166.284 219.012 167.208 215.721 166.397Z" fill="#BFCBDC"/>
<path d="M134.143 80.4736V80.4528C134.142 80.4559 134.14 80.459 134.139 80.4632C134.139 80.459 134.138 80.4559 134.137 80.4528V80.4736C133.873 81.4311 133.262 82.1163 132.306 82.5283C133.262 82.9402 133.873 83.6255 134.137 84.5829V84.6038C134.138 84.5996 134.139 84.5965 134.139 84.5933C134.14 84.5965 134.142 84.5996 134.143 84.6038V84.5829C134.407 83.6255 135.017 82.9402 135.974 82.5283C135.017 82.1163 134.407 81.4311 134.143 80.4736Z" fill="#9CA9BA"/>
<path d="M208.667 64.2951V64.2746C208.666 64.278 208.664 64.2814 208.664 64.2849C208.663 64.2814 208.661 64.278 208.661 64.2746V64.2951C208.396 65.2523 207.786 65.9376 206.829 66.3499C207.786 66.7623 208.396 67.4476 208.661 68.4047V68.4253C208.661 68.4219 208.663 68.4184 208.664 68.415C208.664 68.4184 208.666 68.4219 208.667 68.4253V68.4047C208.931 67.4476 209.54 66.7623 210.498 66.3499C209.54 65.9376 208.931 65.2523 208.667 64.2951Z" fill="#9CA9BA"/>
<path d="M213.286 97.7231V97.6794C213.284 97.6867 213.282 97.694 213.279 97.7013C213.277 97.694 213.274 97.6867 213.274 97.6794V97.7231C212.717 99.7457 211.426 101.196 209.404 102.067C211.426 102.937 212.717 104.385 213.274 106.41V106.454C213.274 106.444 213.277 106.439 213.279 106.429C213.282 106.439 213.284 106.444 213.286 106.454V106.41C213.844 104.385 215.134 102.937 217.157 102.067C215.134 101.196 213.844 99.7457 213.286 97.7231Z" fill="#9CA9BA"/>
<path d="M91.5177 138.939V138.919C91.5168 138.922 91.5158 138.926 91.5148 138.929C91.5139 138.926 91.5128 138.922 91.5119 138.919V138.939C91.2477 139.897 90.6373 140.582 89.6806 140.994C90.6373 141.406 91.2477 142.091 91.5119 143.049V143.069C91.5128 143.066 91.5139 143.063 91.5148 143.059C91.5158 143.063 91.5168 143.066 91.5177 143.069V143.049C91.7819 142.091 92.3922 141.406 93.349 140.994C92.3922 140.582 91.7819 139.897 91.5177 138.939Z" fill="#9CA9BA"/>
<path d="M226.195 73.6111V73.547C226.191 73.5564 226.19 73.5677 226.186 73.579C226.182 73.5677 226.18 73.5564 226.176 73.547V73.6111C225.339 76.6479 223.403 78.8194 220.37 80.1276C223.403 81.4339 225.339 83.6055 226.176 86.6423V86.7083C226.18 86.6969 226.182 86.6856 226.186 86.6743C226.19 86.6856 226.191 86.6969 226.195 86.7083V86.6423C227.032 83.6055 228.968 81.4339 232.001 80.1276C228.968 78.8194 227.032 76.6479 226.195 73.6111Z" fill="#9CA9BA"/>
<path d="M130.58 121.716V121.663C130.577 121.672 130.575 121.68 130.573 121.689C130.57 121.68 130.567 121.672 130.565 121.663V121.716C129.866 124.248 128.253 126.057 125.726 127.147C128.253 128.236 129.866 130.045 130.565 132.577V132.63C130.567 132.621 130.57 132.613 130.573 132.604C130.575 132.613 130.577 132.621 130.58 132.63V132.577C131.278 130.045 132.891 128.236 135.419 127.147C132.891 126.057 131.278 124.248 130.58 121.716Z" fill="#9CA9BA"/>
<path d="M121.766 57.3977V57.3336C121.763 57.3446 121.761 57.3556 121.758 57.3666C121.754 57.3556 121.751 57.3446 121.749 57.3336V57.3977C120.91 60.4353 118.975 62.6069 115.942 63.9142C118.975 65.2216 120.91 67.3931 121.749 70.4308V70.4949C121.751 70.4839 121.754 70.4729 121.758 70.4619C121.761 70.4729 121.763 70.4839 121.766 70.4949V70.4308C122.605 67.3931 124.54 65.2216 127.573 63.9142C124.54 62.6069 122.605 60.4353 121.766 57.3977Z" fill="#9CA9BA"/>
<path d="M195.66 71.6109C195.66 80.2322 188.672 87.2217 180.051 87.2217C171.429 87.2217 164.44 80.2322 164.44 71.6109C164.44 62.9895 171.429 56.0001 180.051 56.0001C188.672 56.0001 195.66 62.9895 195.66 71.6109Z" fill="#D1DEF0"/>
<path d="M183.129 56.3041C183.222 58.6494 183.063 61.0946 182.282 62.7443C180.324 66.8785 177.278 68.1839 170.315 71.6106C167.464 73.0137 166.297 75.6305 165.912 78.2318C167.021 80.5961 168.705 82.6364 170.785 84.1729C171.255 82.2076 172.141 80.0208 173.797 78.1925C177.931 73.6235 184.24 77.9745 191.539 74.2762C193.473 73.2948 194.741 71.6725 195.559 69.818C194.787 63.0635 189.704 57.6179 183.129 56.3041Z" fill="#ADB9C8"/>
<path d="M118.652 105.058C121.529 111.599 118.558 119.234 112.017 122.111C105.476 124.988 97.8415 122.017 94.9646 115.477C92.0879 108.935 95.0584 101.3 101.6 98.4239C108.141 95.5463 115.776 98.517 118.652 105.058Z" fill="#E9F3FF"/>
<path d="M87.222 121.756C86.0737 121.756 85.4024 121.502 85.1751 120.986C84.8504 120.247 85.5437 119.188 87.2944 117.747C88.8529 116.465 91.2218 114.914 94.1451 113.263C94.2798 113.186 94.4508 113.234 94.527 113.368C94.6031 113.503 94.5556 113.674 94.4209 113.75C91.5255 115.387 89.1843 116.918 87.6506 118.18C85.5407 119.916 85.6152 120.594 85.6882 120.759C85.7769 120.961 86.538 121.884 92.8239 120.227C97.2183 119.068 102.841 117.022 108.658 114.464C114.474 111.906 119.783 109.145 123.607 106.689C129.076 103.176 128.911 101.991 128.822 101.79C128.749 101.625 128.306 101.117 125.643 101.486C123.707 101.754 121.033 102.429 117.912 103.438C117.764 103.485 117.607 103.404 117.559 103.257C117.511 103.109 117.592 102.951 117.739 102.905C120.892 101.886 123.598 101.203 125.567 100.931C127.779 100.624 129.012 100.832 129.334 101.564C129.595 102.156 129.207 102.944 128.149 103.974C127.217 104.881 125.79 105.952 123.909 107.16C120.062 109.632 114.726 112.408 108.883 114.978C103.041 117.547 97.3885 119.604 92.9667 120.77C90.8052 121.339 89.0509 121.665 87.7526 121.739C87.5657 121.749 87.3887 121.756 87.222 121.756Z" fill="#ADB9C8"/>
<path d="M237 192C236.933 192 236.866 191.976 236.813 191.928C231.69 187.311 226.126 183.131 220.276 179.505C214.363 175.84 208.089 172.698 201.628 170.166C188.212 164.909 174.038 162.243 159.5 162.243C144.962 162.243 130.788 164.909 117.372 170.166C110.91 172.698 104.636 175.84 98.7235 179.505C92.8732 183.131 87.3097 187.311 82.187 191.928C82.072 192.032 81.8949 192.022 81.7911 191.907C81.6876 191.792 81.6967 191.615 81.8117 191.511C86.9591 186.872 92.5495 182.672 98.4282 179.028C104.37 175.345 110.675 172.188 117.167 169.644C130.648 164.361 144.891 161.683 159.5 161.683C174.109 161.683 188.351 164.361 201.833 169.644C208.325 172.188 214.629 175.345 220.572 179.028C226.45 182.672 232.04 186.872 237.188 191.511C237.304 191.615 237.313 191.792 237.208 191.907C237.153 191.969 237.077 192 237 192Z" fill="#9CA9BA"/>
<path d="M100.993 185.713C100.866 185.713 100.75 185.625 100.72 185.495C100.686 185.344 100.78 185.194 100.931 185.16C101.007 185.142 108.596 183.379 117.438 178.907C123.759 175.711 128.397 171.881 131.175 169.23C133.552 166.963 135.009 165.148 135.526 164.475L126.685 160.793C126.434 160.768 124.788 160.646 121.829 161.272C116.458 162.409 110.968 165.094 107.308 167.145C100.328 171.058 94.3552 177.316 93.6284 178.091V182.704C93.6284 182.859 93.5029 182.985 93.3481 182.985C93.1933 182.985 93.0678 182.859 93.0678 182.704V177.981C93.0678 177.91 93.0941 177.843 93.1415 177.792C93.2047 177.723 99.5432 170.856 107.034 166.656C110.742 164.577 116.306 161.86 121.76 160.715C125.047 160.023 126.723 160.231 126.792 160.24C126.817 160.244 126.841 160.25 126.863 160.26L136.073 164.095C136.151 164.128 136.211 164.195 136.234 164.277C136.258 164.359 136.243 164.447 136.193 164.517C136.178 164.538 134.62 166.716 131.575 169.624C128.767 172.304 124.08 176.176 117.691 179.408C108.784 183.912 101.132 185.689 101.056 185.706C101.035 185.711 101.014 185.713 100.993 185.713Z" fill="#9CA9BA"/>
<path d="M97.1624 178.366C97.0504 178.366 96.9446 178.298 96.9013 178.188C96.845 178.043 96.9161 177.881 97.0602 177.824C97.079 177.817 99.0411 177.042 108.419 172.711C117.754 168.401 121.334 164.503 121.37 164.465C121.473 164.349 121.651 164.34 121.766 164.444C121.88 164.548 121.889 164.724 121.786 164.84C121.75 164.881 120.861 165.859 118.791 167.387C116.89 168.791 113.589 170.941 108.654 173.22C99.2434 177.566 97.3407 178.316 97.2644 178.347C97.2308 178.359 97.1964 178.366 97.1624 178.366Z" fill="#9CA9BA"/>
<path d="M224.025 184.079C222.992 184.079 221.715 184.04 220.219 183.918C216.333 183.602 210.199 182.642 203.044 179.871C199.101 178.343 193.204 175.785 187.498 172.274C184.079 170.169 182.324 168.696 182.307 168.682C182.188 168.582 182.173 168.405 182.273 168.287C182.373 168.168 182.549 168.154 182.668 168.253C182.684 168.268 184.418 169.721 187.807 171.806C190.933 173.73 196.15 176.599 203.247 179.348C210.339 182.096 216.416 183.046 220.264 183.36C223.421 183.616 225.626 183.499 226.518 183.426L223.024 177.811C222.522 177.391 216.296 172.267 206.308 167.635C201.575 165.44 197.704 163.961 194.473 163.113C191.547 162.346 189.679 162.247 188.378 162.247C187.599 162.247 182.473 163.613 180.563 164.139C180.415 164.18 180.261 164.093 180.219 163.944C180.177 163.794 180.266 163.64 180.415 163.599C181.125 163.403 187.382 161.686 188.378 161.686C191.561 161.686 196.209 162.333 206.543 167.127C212 169.657 216.296 172.317 218.939 174.102C221.805 176.039 223.405 177.399 223.421 177.412C223.443 177.431 223.462 177.453 223.476 177.477L227.233 183.513C227.283 183.594 227.289 183.695 227.248 183.782C227.207 183.867 227.125 183.927 227.03 183.939C226.964 183.947 225.903 184.079 224.025 184.079Z" fill="#9CA9BA"/>
<path d="M218.986 177.859C218.975 177.859 218.964 177.858 218.954 177.857C218.877 177.849 211.057 176.965 202.436 173.138C199.95 172.034 196.32 170.26 193.149 168.073C191.242 166.758 190.415 165.926 190.381 165.891C190.272 165.78 190.273 165.603 190.383 165.495C190.493 165.386 190.671 165.387 190.779 165.497C190.812 165.53 194.144 168.844 202.662 172.626C211.2 176.416 218.938 177.291 219.014 177.3C219.169 177.317 219.28 177.455 219.263 177.609C219.247 177.753 219.127 177.859 218.986 177.859Z" fill="#ADB9C8"/>
<path d="M116.833 225.208C113.397 225.208 111.214 222.833 111.214 219.007V218.999C111.214 215.172 113.397 212.814 116.833 212.814C119.589 212.814 121.623 214.533 121.93 216.973L121.947 217.056H119.838L119.797 216.898C119.448 215.529 118.402 214.674 116.833 214.674C114.742 214.674 113.405 216.342 113.405 218.999V219.007C113.405 221.671 114.75 223.348 116.833 223.348C118.369 223.348 119.432 222.526 119.83 221.049L119.847 220.966H121.947L121.938 221.049C121.623 223.506 119.589 225.208 116.833 225.208ZM123.434 225V216.201H131.195V225H129.12V217.795H125.501V225H123.434ZM132.973 225V216.201H135.015V222.07H135.098L138.892 216.201H140.917V225H138.875V219.09H138.792L134.999 225H132.973ZM146.572 225.174C143.957 225.174 142.322 223.415 142.322 220.592V220.584C142.322 217.778 143.982 216.019 146.555 216.019C148.871 216.019 150.307 217.488 150.432 219.248L150.44 219.314H148.489L148.481 219.239C148.307 218.384 147.676 217.695 146.572 217.695C145.268 217.695 144.43 218.799 144.43 220.601V220.609C144.43 222.443 145.277 223.506 146.588 223.506C147.634 223.506 148.29 222.883 148.481 221.962L148.497 221.887H150.448V221.945C150.29 223.78 148.796 225.174 146.572 225.174ZM155.638 225.174C153.048 225.174 151.379 223.448 151.379 220.601V220.584C151.379 217.762 153.073 216.019 155.638 216.019C158.194 216.019 159.896 217.745 159.896 220.584V220.601C159.896 223.456 158.219 225.174 155.638 225.174ZM155.646 223.506C156.958 223.506 157.796 222.443 157.796 220.601V220.584C157.796 218.75 156.941 217.695 155.638 217.695C154.343 217.695 153.488 218.758 153.488 220.584V220.601C153.488 222.452 154.335 223.506 155.646 223.506ZM163.683 221.173H163.376V225H161.309V216.201H163.376V219.754H163.683L166.663 216.201H169.045L165.501 220.31L169.219 225H166.704L163.683 221.173ZM173.597 225V216.201H181.358V225H179.283V217.795H175.664V225H173.597ZM184.315 227.922C183.908 227.922 183.493 227.872 183.253 227.831V226.253C183.402 226.287 183.643 226.328 183.933 226.328C184.73 226.328 185.162 226.104 185.427 225.365L185.56 225.008L182.398 216.201H184.647L186.706 223.24H186.772L188.831 216.201H191.014L187.843 225.299C187.179 227.233 186.141 227.922 184.315 227.922ZM195.672 225.174C193.057 225.174 191.422 223.415 191.422 220.592V220.584C191.422 217.778 193.082 216.019 195.656 216.019C197.971 216.019 199.408 217.488 199.532 219.248L199.54 219.314H197.59L197.581 219.239C197.407 218.384 196.776 217.695 195.672 217.695C194.369 217.695 193.531 218.799 193.531 220.601V220.609C193.531 222.443 194.377 223.506 195.689 223.506C196.735 223.506 197.39 222.883 197.581 221.962L197.598 221.887H199.549V221.945C199.391 223.78 197.897 225.174 195.672 225.174ZM207.544 216.201V217.803H204.846V225H202.779V217.803H200.081V216.201H207.544Z" fill="#F5F5F6"/>
<path d="M79.4799 248.063C79.2704 248.063 79.0737 248.032 78.9721 247.981V246.959C79.0991 246.991 79.2831 247.01 79.4799 247.01C80.1655 247.01 80.6161 246.718 80.978 246.045L77.8486 238.84H79.0673L81.5239 244.775H81.6254L84.0248 238.84H85.2119L82.4062 245.378C81.5366 247.41 80.8256 248.063 79.4799 248.063ZM89.071 248V241.398H91.8957C93.1335 241.398 93.8888 242.052 93.8888 243.1V243.112C93.8888 243.792 93.4128 244.414 92.8034 244.541V244.591C93.6349 244.706 94.1808 245.29 94.1808 246.096V246.108C94.1808 247.27 93.3176 248 91.9147 248H89.071ZM90.1755 244.16H91.5656C92.3971 244.16 92.7907 243.861 92.7907 243.227V243.214C92.7907 242.624 92.4225 242.312 91.7306 242.312H90.1755V244.16ZM90.1755 247.086H91.8195C92.6193 247.086 93.051 246.743 93.051 246.083V246.07C93.051 245.391 92.5876 245.074 91.6227 245.074H90.1755V247.086ZM97.5101 248.127C96.1961 248.127 95.3138 247.333 95.3138 246.134V246.121C95.3138 244.998 96.1897 244.293 97.7068 244.204L99.5984 244.096V243.544C99.5984 242.738 99.0716 242.249 98.1512 242.249C97.3006 242.249 96.7674 242.655 96.6404 243.246L96.6277 243.303H95.5613L95.5677 243.233C95.6629 242.147 96.6087 241.271 98.1639 241.271C99.7254 241.271 100.703 242.116 100.703 243.436V248H99.5984V246.927H99.573C99.1858 247.651 98.3924 248.127 97.5101 248.127ZM96.4436 246.134C96.4436 246.769 96.9642 247.168 97.7576 247.168C98.7986 247.168 99.5984 246.451 99.5984 245.493V244.953L97.8338 245.061C96.9515 245.112 96.4436 245.505 96.4436 246.121V246.134ZM105.099 248.127C103.226 248.127 102.039 246.794 102.039 244.693V244.687C102.039 242.604 103.251 241.271 105.086 241.271C106.73 241.271 107.701 242.363 107.841 243.493L107.847 243.544H106.768L106.755 243.493C106.59 242.833 106.057 242.249 105.086 242.249C103.937 242.249 103.169 243.201 103.169 244.699V244.706C103.169 246.242 103.956 247.149 105.099 247.149C106 247.149 106.578 246.642 106.762 245.905L106.774 245.854H107.86L107.853 245.899C107.676 247.156 106.59 248.127 105.099 248.127ZM116.257 248V245.036H113.027V248H111.922V241.398H113.027V244.122H116.257V241.398H117.362V248H116.257ZM121.77 248.127C119.872 248.127 118.73 246.8 118.73 244.725V244.718C118.73 242.674 119.898 241.271 121.7 241.271C123.503 241.271 124.601 242.611 124.601 244.591V244.998H119.847C119.872 246.356 120.621 247.149 121.796 247.149C122.634 247.149 123.224 246.73 123.414 246.166L123.433 246.108H124.519L124.506 246.172C124.29 247.264 123.211 248.127 121.77 248.127ZM121.694 242.249C120.736 242.249 119.987 242.903 119.866 244.134H123.478C123.37 242.852 122.659 242.249 121.694 242.249ZM130.546 241.398V242.312H128.419V248H127.315V242.312H125.188V241.398H130.546ZM139.324 241.398V242.312H137.198V248H136.093V242.312H133.967V241.398H139.324ZM143.092 248.127C141.257 248.127 140.032 246.8 140.032 244.699V244.687C140.032 242.585 141.263 241.271 143.085 241.271C144.907 241.271 146.145 242.579 146.145 244.687V244.699C146.145 246.807 144.913 248.127 143.092 248.127ZM143.098 247.149C144.26 247.149 145.015 246.248 145.015 244.699V244.687C145.015 243.138 144.253 242.249 143.085 242.249C141.936 242.249 141.162 243.144 141.162 244.687V244.699C141.162 246.254 141.93 247.149 143.098 247.149ZM147.513 248V241.398H150.337C151.575 241.398 152.33 242.052 152.33 243.1V243.112C152.33 243.792 151.854 244.414 151.245 244.541V244.591C152.077 244.706 152.622 245.29 152.622 246.096V246.108C152.622 247.27 151.759 248 150.356 248H147.513ZM148.617 244.16H150.007C150.839 244.16 151.232 243.861 151.232 243.227V243.214C151.232 242.624 150.864 242.312 150.172 242.312H148.617V244.16ZM148.617 247.086H150.261C151.061 247.086 151.493 246.743 151.493 246.083V246.07C151.493 245.391 151.029 245.074 150.064 245.074H148.617V247.086ZM155.952 248.127C154.638 248.127 153.755 247.333 153.755 246.134V246.121C153.755 244.998 154.631 244.293 156.148 244.204L158.04 244.096V243.544C158.04 242.738 157.513 242.249 156.593 242.249C155.742 242.249 155.209 242.655 155.082 243.246L155.069 243.303H154.003L154.009 243.233C154.104 242.147 155.05 241.271 156.605 241.271C158.167 241.271 159.145 242.116 159.145 243.436V248H158.04V246.927H158.015C157.627 247.651 156.834 248.127 155.952 248.127ZM154.885 246.134C154.885 246.769 155.406 247.168 156.199 247.168C157.24 247.168 158.04 246.451 158.04 245.493V244.953L156.275 245.061C155.393 245.112 154.885 245.505 154.885 246.121V246.134ZM160.804 250.222V241.398H161.909V242.516H161.934C162.347 241.748 163.083 241.271 164.029 241.271C165.717 241.271 166.835 242.617 166.835 244.699V244.706C166.835 246.788 165.705 248.127 164.048 248.127C163.115 248.127 162.347 247.657 161.934 246.896H161.909V250.222H160.804ZM163.813 247.149C164.981 247.149 165.705 246.21 165.705 244.706V244.699C165.705 243.182 164.981 242.249 163.813 242.249C162.696 242.249 161.902 243.22 161.902 244.699V244.706C161.902 246.178 162.702 247.149 163.813 247.149ZM170.945 248.127C169.11 248.127 167.885 246.8 167.885 244.699V244.687C167.885 242.585 169.116 241.271 170.938 241.271C172.76 241.271 173.998 242.579 173.998 244.687V244.699C173.998 246.807 172.766 248.127 170.945 248.127ZM170.951 247.149C172.113 247.149 172.868 246.248 172.868 244.699V244.687C172.868 243.138 172.106 242.249 170.938 242.249C169.789 242.249 169.015 243.144 169.015 244.687V244.699C169.015 246.254 169.783 247.149 170.951 247.149ZM175.366 248V241.398H178.19C179.428 241.398 180.183 242.052 180.183 243.1V243.112C180.183 243.792 179.707 244.414 179.098 244.541V244.591C179.93 244.706 180.475 245.29 180.475 246.096V246.108C180.475 247.27 179.612 248 178.209 248H175.366ZM176.47 244.16H177.86C178.692 244.16 179.085 243.861 179.085 243.227V243.214C179.085 242.624 178.717 242.312 178.025 242.312H176.47V244.16ZM176.47 247.086H178.114C178.914 247.086 179.346 246.743 179.346 246.083V246.07C179.346 245.391 178.882 245.074 177.917 245.074H176.47V247.086ZM184.665 248V241.398H187.489C188.727 241.398 189.483 242.052 189.483 243.1V243.112C189.483 243.792 189.006 244.414 188.397 244.541V244.591C189.229 244.706 189.775 245.29 189.775 246.096V246.108C189.775 247.27 188.911 248 187.508 248H184.665ZM185.769 244.16H187.159C187.991 244.16 188.384 243.861 188.384 243.227V243.214C188.384 242.624 188.016 242.312 187.324 242.312H185.769V244.16ZM185.769 247.086H187.413C188.213 247.086 188.645 246.743 188.645 246.083V246.07C188.645 245.391 188.181 245.074 187.216 245.074H185.769V247.086ZM195.322 244.953H195.068V248H193.964V241.398H195.068V244.191H195.322L197.925 241.398H199.264L196.319 244.521L199.353 248H197.956L195.322 244.953ZM203.019 248.127C201.184 248.127 199.959 246.8 199.959 244.699V244.687C199.959 242.585 201.19 241.271 203.012 241.271C204.834 241.271 206.072 242.579 206.072 244.687V244.699C206.072 246.807 204.84 248.127 203.019 248.127ZM203.025 247.149C204.186 247.149 204.942 246.248 204.942 244.699V244.687C204.942 243.138 204.18 242.249 203.012 242.249C201.863 242.249 201.089 243.144 201.089 244.687V244.699C201.089 246.254 201.857 247.149 203.025 247.149ZM207.446 250.222V241.398H208.55V242.516H208.576C208.988 241.748 209.725 241.271 210.67 241.271C212.359 241.271 213.476 242.617 213.476 244.699V244.706C213.476 246.788 212.346 248.127 210.69 248.127C209.756 248.127 208.988 247.657 208.576 246.896H208.55V250.222H207.446ZM210.455 247.149C211.623 247.149 212.346 246.21 212.346 244.706V244.699C212.346 243.182 211.623 242.249 210.455 242.249C209.337 242.249 208.544 243.22 208.544 244.699V244.706C208.544 246.178 209.344 247.149 210.455 247.149ZM217.047 248.127C215.612 248.127 214.577 247.416 214.444 246.337L214.438 246.286H215.555L215.574 246.35C215.733 246.902 216.259 247.213 217.047 247.213C217.961 247.213 218.538 246.794 218.538 246.127V246.115C218.538 245.41 218.056 245.08 217.047 245.08H216.056V244.166H217.047C217.923 244.166 218.361 243.836 218.361 243.182V243.169C218.361 242.554 217.897 242.186 217.116 242.186C216.361 242.186 215.809 242.522 215.707 243.036L215.701 243.068H214.628L214.634 243.023C214.787 241.957 215.745 241.271 217.116 241.271C218.557 241.271 219.44 241.963 219.44 243.081V243.093C219.44 243.798 218.976 244.388 218.303 244.541V244.591C219.154 244.775 219.624 245.302 219.624 246.064V246.077C219.624 247.302 218.589 248.127 217.047 248.127ZM221.017 248V241.398H222.121V246.305H222.172L225.46 241.398H226.552V248H225.448V243.093H225.397L222.109 248H221.017ZM232.566 248V245.036H229.335V248H228.231V241.398H229.335V244.122H232.566V241.398H233.671V248H232.566ZM238.079 248.127C236.181 248.127 235.039 246.8 235.039 244.725V244.718C235.039 242.674 236.207 241.271 238.009 241.271C239.812 241.271 240.91 242.611 240.91 244.591V244.998H236.156C236.181 246.356 236.93 247.149 238.105 247.149C238.942 247.149 239.533 246.73 239.723 246.166L239.742 246.108H240.828L240.815 246.172C240.599 247.264 239.52 248.127 238.079 248.127ZM238.003 242.249C237.044 242.249 236.295 242.903 236.175 244.134H239.787C239.679 242.852 238.968 242.249 238.003 242.249Z" fill="#94969C"/>
</svg>
