<svg width="61" height="61" viewBox="0 0 61 61" fill="none" xmlns="http://www.w3.org/2000/svg">
<path d="M26.3002 35.9L19.7752 29.375C19.2252 28.825 18.5502 28.55 17.7502 28.55C16.9502 28.55 16.2502 28.85 15.6502 29.45C15.1002 30 14.8252 30.7 14.8252 31.55C14.8252 32.4 15.1002 33.1 15.6502 33.65L24.2002 42.2C24.7502 42.75 25.4502 43.025 26.3002 43.025C27.1502 43.025 27.8502 42.75 28.4002 42.2L45.4252 25.175C45.9753 24.625 46.2502 23.95 46.2502 23.15C46.2502 22.35 45.9502 21.65 45.3503 21.05C44.8003 20.5 44.1002 20.225 43.2502 20.225C42.4002 20.225 41.7002 20.5 41.1502 21.05L26.3002 35.9ZM30.5002 60.5C26.3502 60.5 22.4502 59.712 18.8002 58.136C15.1502 56.562 11.9752 54.425 9.27525 51.725C6.57525 49.025 4.43824 45.85 2.86424 42.2C1.28824 38.55 0.500244 34.65 0.500244 30.5C0.500244 26.35 1.28824 22.45 2.86424 18.8C4.43824 15.15 6.57525 11.975 9.27525 9.275C11.9752 6.575 15.1502 4.437 18.8002 2.861C22.4502 1.287 26.3502 0.5 30.5002 0.5C34.6502 0.5 38.5502 1.287 42.2002 2.861C45.8502 4.437 49.0252 6.575 51.7253 9.275C54.4253 11.975 56.5622 15.15 58.1362 18.8C59.7122 22.45 60.5002 26.35 60.5002 30.5C60.5002 34.65 59.7122 38.55 58.1362 42.2C56.5622 45.85 54.4253 49.025 51.7253 51.725C49.0252 54.425 45.8502 56.562 42.2002 58.136C38.5502 59.712 34.6502 60.5 30.5002 60.5Z" fill="#0ABAB5"/>
</svg>
