<svg width="19" height="20" viewBox="0 0 19 20" fill="none" xmlns="http://www.w3.org/2000/svg">
<path d="M2.78571 17.7143H6.21429V10.8571H13.0714V17.7143H16.5V7.42857L9.64286 2.28571L2.78571 7.42857V17.7143ZM2.78571 20C2.15714 20 1.61924 19.7764 1.172 19.3291C0.724 18.8811 0.5 18.3429 0.5 17.7143V7.42857C0.5 7.06667 0.581143 6.72381 0.743428 6.4C0.904952 6.07619 1.12857 5.80952 1.41429 5.6L8.27143 0.457143C8.48095 0.304762 8.7 0.190476 8.92857 0.114286C9.15714 0.0380951 9.39524 0 9.64286 0C9.89048 0 10.1286 0.0380951 10.3571 0.114286C10.5857 0.190476 10.8048 0.304762 11.0143 0.457143L17.8714 5.6C18.1571 5.80952 18.3811 6.07619 18.5434 6.4C18.705 6.72381 18.7857 7.06667 18.7857 7.42857V17.7143C18.7857 18.3429 18.5621 18.8811 18.1149 19.3291C17.6669 19.7764 17.1286 20 16.5 20H10.7857V13.1429H8.5V20H2.78571Z" fill="#8B9099" fill-opacity="0.7"/>
</svg>
